<svg xmlns="http://www.w3.org/2000/svg" viewBox="0 0 48.8 40.1"><defs><style>.cls-1{fill:#742a83;}</style></defs><g id="Layer_2" data-name="Layer 2"><g id="Layer_1-2" data-name="Layer 1"><path class="cls-1" d="M24.9,32H24a.9.9,0,0,1,0-1.8h.9a.9.9,0,1,1,0,1.8"/><path class="cls-1" d="M45.1,32.3H3.7a1.92,1.92,0,0,1-1.9-2v-.4H47v.4a1.92,1.92,0,0,1-1.9,2M27.6,38.4H21.2V34.2h6.4ZM3.7,1.9H45.1a1.92,1.92,0,0,1,1.9,2v24H1.8V3.9a2,2,0,0,1,1.9-2M45.1,0H3.7A3.87,3.87,0,0,0,0,3.9V30.2a3.8,3.8,0,0,0,3.7,3.9H19.4v4.2H15.5a.9.9,0,0,0,0,1.8H33.3a.9.9,0,0,0,0-1.8H29.4V34.2H45.1a3.87,3.87,0,0,0,3.7-3.9V4a3.83,3.83,0,0,0-3.7-4"/><path class="cls-1" d="M27.1,8.6a.65.65,0,0,0-.6.6.58.58,0,0,0,.6.6H39a.65.65,0,0,0,.6-.6.58.58,0,0,0-.6-.6Zm11.8,3.2H27.1a2.5,2.5,0,0,1,0-5H39a2.46,2.46,0,0,1,2.4,2.5,2.61,2.61,0,0,1-2.5,2.5"/><path class="cls-1" d="M36.7,16.1H29.3a.9.9,0,0,1,0-1.8h7.3a.9.9,0,0,1,.9.9.77.77,0,0,1-.8.9"/><path class="cls-1" d="M36.7,19.3H29.3a.9.9,0,0,1,0-1.8h7.3a.9.9,0,0,1,.9.9.77.77,0,0,1-.8.9"/><path class="cls-1" d="M36.8,22.5H29.2a.9.9,0,1,1,0-1.8h7.6a.9.9,0,0,1,0,1.8"/><path class="cls-1" d="M23.5,16H9.2a.9.9,0,0,1,0-1.8H23.5a.9.9,0,0,1,.9.9,1,1,0,0,1-.9.9"/><path class="cls-1" d="M23.5,19.2H9.2a1,1,0,0,1-.9-1,.9.9,0,0,1,.9-.9H23.5a.9.9,0,0,1,.9.9,1,1,0,0,1-.9,1"/><path class="cls-1" d="M23.6,22.4H9a.9.9,0,1,1,0-1.8H23.6a.9.9,0,0,1,0,1.8"/></g></g></svg>