<svg xmlns="http://www.w3.org/2000/svg" viewBox="0 0 571.56 146.63"><defs><style>.cls-1{fill:#5ace0f;}.cls-2{fill:#732282;}.cls-3{fill:#722282;}</style></defs><g id="Layer_2" data-name="Layer 2"><g id="Layer_1-2" data-name="Layer 1"><path class="cls-1" d="M180.13,5.81l-22,122.4a5,5,0,0,1-4.88,4.15H112a4.89,4.89,0,0,1-3.85-1.78,4.78,4.78,0,0,1-1.08-4l21.4-121-14.22,0L93,124a19.27,19.27,0,0,0,19,22.61h41.21a19.24,19.24,0,0,0,18.93-15.82l22.52-125Z"/><path class="cls-1" d="M19.25,132.37a5,5,0,0,1-4.92-5.86L32.2,23.88a5,5,0,0,1,4.91-4.13H94.72L97.5,5.51H37.11A19.22,19.22,0,0,0,18.16,21.38L.3,124a19.25,19.25,0,0,0,19,22.61H72.74l2.83-14.24Z"/><polygon class="cls-2" points="349.17 15.67 345.46 36.85 357.18 36.85 360.89 15.67 349.17 15.67"/><polygon class="cls-2" points="326.65 145.1 338.37 145.1 354.79 51.09 343.07 51.09 326.65 145.1"/><polygon class="cls-2" points="382.79 0 357.51 145.1 369.23 145.1 394.51 0 382.79 0"/><path class="cls-2" d="M306.92,51.09H269.87l-2,11.54h39.09a4,4,0,0,1,3.17,1.3,4.32,4.32,0,0,1,.76,3.59l-4.21,24H261.51c-9.1,0-17.79,7.37-19.37,16.43l-3.28,18.71a15.67,15.67,0,0,0,3.29,13,15.39,15.39,0,0,0,12,5.4h38.32c9.1,0,17.8-7.37,19.38-16.42l10.35-59.17a15.66,15.66,0,0,0-3.28-13A15.38,15.38,0,0,0,306.92,51.09Zm-2.3,52-4.13,23.6a8.74,8.74,0,0,1-8,6.87H254.16a4,4,0,0,1-3.17-1.29,4.33,4.33,0,0,1-.76-3.59L253.5,110a8.77,8.77,0,0,1,8-6.88Z"/><path class="cls-2" d="M262,51.09H222.14c-9.1,0-17.79,7.37-19.38,16.44L189.31,145.1H201l13.11-75.59a8.76,8.76,0,0,1,8-6.88h37.8Z"/><path class="cls-2" d="M499.46,94.91l-2.77-2.66c-3.86-3.68-6.95-6.64-8.89-8.46l-.45-.43H468.2L453.39,94.91Z"/><polygon class="cls-2" points="421.02 120.14 525.74 120.14 513.73 108.6 435.82 108.6 421.02 120.14"/><path class="cls-2" d="M540,133.84H402.55a4.93,4.93,0,0,1-3-8.82L455.09,81.7a16.43,16.43,0,0,0,6.08-10l.16-.91a16.47,16.47,0,0,0-16.2-19.45H400l-2,11.54h47.11A4.94,4.94,0,0,1,450,68.69l-.17.91a4.9,4.9,0,0,1-1.82,3l-55.56,43.32a16.47,16.47,0,0,0,10.12,29.46H552Z"/><path class="cls-3" d="M558.33,139.16a6.62,6.62,0,1,1,6.61,6.61A6.62,6.62,0,0,1,558.33,139.16Zm6.61-6.07a6.06,6.06,0,1,0,6,6.07A6.05,6.05,0,0,0,564.94,133.09Zm-.75,9.32h-2.13v-6.68h3.23c1.88,0,2.86.84,2.86,2.2a2,2,0,0,1-1.27,1.89l1.54,2.59h-2.29L565,140.25l-.78.05Zm.71-3.43c.7,0,1.09-.32,1.09-.93s-.34-.85-1.12-.85h-.7V139Z"/></g></g></svg>