<svg xmlns="http://www.w3.org/2000/svg" viewBox="0 0 37 37"><defs><style>.cls-1{fill:#b9d532;}</style></defs><g id="Layer_2" data-name="Layer 2"><g id="Layer_1-2" data-name="Layer 1"><polygon class="cls-1" points="11.78 13.46 11.78 15.13 18.46 19.31 25.13 15.13 25.13 13.46 18.46 17.64 11.78 13.46"/><path class="cls-1" d="M18.5,0A18.5,18.5,0,1,0,37,18.5,18.5,18.5,0,0,0,18.5,0Zm8.3,23.48a1.67,1.67,0,0,1-1.67,1.67H11.78a1.67,1.67,0,0,1-1.67-1.67v-10a1.66,1.66,0,0,1,1.66-1.67H25.13a1.67,1.67,0,0,1,1.67,1.67Z"/></g></g></svg>