<svg xmlns="http://www.w3.org/2000/svg" viewBox="0 0 45.05 38.45"><defs><style>.cls-1{fill:none;stroke:#742a83;stroke-linecap:round;stroke-linejoin:round;stroke-width:1.25px;}</style></defs><g id="Layer_2" data-name="Layer 2"><g id="Layer_1-2" data-name="Layer 1"><g id="Funds_Deposited" data-name="Funds Deposited"><path class="cls-1" d="M.62,12,5.82.62H39.23L44.43,12Zm0,0s.4,2.9,3.11,2.9S6.83,12,6.83,12s.4,2.9,3.1,2.9S13,12,13,12s.4,2.9,3.1,2.9,3.1-2.9,3.1-2.9.4,2.9,3.1,2.9,3.1-2.9,3.1-2.9.4,2.9,3.1,2.9S31.62,12,31.62,12s.41,2.9,3.1,2.9,3.1-2.9,3.1-2.9.4,2.9,3.1,2.9S44,12,44,12M6.83,12,10.62.62m5.21,0L13.12,12m7-11.41L19.33,12m6.29,0L25.33.62m5.7,0L31.83,12m4-11.41,2.29,11.5M2.93,15v22.8H42V15"/><path class="cls-1" d="M24.42,17.73H7.23V31h17.2Zm15.2,20.1v-20H29.12v20m8.6-16.21a1,1,0,0,0-1-1h-4.8a1,1,0,0,0-1,1v3.8a1,1,0,0,0,1,1h4.8a1,1,0,0,0,1-1Zm0,8.5a1,1,0,0,0-1-1h-4.8a1,1,0,0,0-1,1v3.81a1,1,0,0,0,1,1h4.8a1,1,0,0,0,1-1ZM16.33,24.43l2.9-2.9m-2,5.8,2.89-2.91"/></g></g></g></svg>