<svg xmlns="http://www.w3.org/2000/svg" viewBox="0 0 25.12 25.12"><defs><style>.cls-1{fill:#fff;fill-rule:evenodd;}</style></defs><g id="Layer_2" data-name="Layer 2"><g id="Layer_1-2" data-name="Layer 1"><path id="Path_40" data-name="Path 40" class="cls-1" d="M12.56,2.25a39.87,39.87,0,0,1,5,.14,6.62,6.62,0,0,1,2.37.42,5,5,0,0,1,2.37,2.37,6.58,6.58,0,0,1,.42,2.37c0,1.25.14,1.67.14,5a39.87,39.87,0,0,1-.14,5,6.62,6.62,0,0,1-.42,2.37,5,5,0,0,1-2.37,2.37,6.57,6.57,0,0,1-2.37.41c-1.25,0-1.67.14-5,.14a38.07,38.07,0,0,1-5-.13,6.62,6.62,0,0,1-2.37-.42,5,5,0,0,1-2.37-2.37,6.58,6.58,0,0,1-.42-2.37c0-1.25-.13-1.67-.13-5a38.07,38.07,0,0,1,.13-5,6.62,6.62,0,0,1,.42-2.37,4.67,4.67,0,0,1,1-1.39,2.32,2.32,0,0,1,1.39-1,6.62,6.62,0,0,1,2.37-.42,39.87,39.87,0,0,1,5-.14m0-2.22A38.48,38.48,0,0,0,7.41.17,8.27,8.27,0,0,0,4.34.73,5.33,5.33,0,0,0,2.12,2.12,5.33,5.33,0,0,0,.73,4.34,6.23,6.23,0,0,0,.17,7.41,38.48,38.48,0,0,0,0,12.56a38.48,38.48,0,0,0,.14,5.15,8.27,8.27,0,0,0,.56,3.07A5.33,5.33,0,0,0,2.12,23a5.49,5.49,0,0,0,2.23,1.4A8.41,8.41,0,0,0,7.41,25a40.22,40.22,0,0,0,5.15.14A40.43,40.43,0,0,0,17.72,25a8.45,8.45,0,0,0,3.06-.55,5.86,5.86,0,0,0,3.62-3.62A8.69,8.69,0,0,0,25,17.71c0-1.39.14-1.81.14-5.15A42.13,42.13,0,0,0,25,7.41a8.69,8.69,0,0,0-.56-3.07A5.43,5.43,0,0,0,23,2.12,5.43,5.43,0,0,0,20.78.73,8.27,8.27,0,0,0,17.71.17,38.48,38.48,0,0,0,12.56,0m0,6.12a6.31,6.31,0,0,0-6.41,6.2v.21a6.41,6.41,0,1,0,6.41-6.41h0m0,10.59a4.11,4.11,0,0,1-4.18-4v-.16a4.1,4.1,0,0,1,4-4.18h.16a4.11,4.11,0,0,1,4.18,4v.16a4.11,4.11,0,0,1-4,4.18h-.16m6.68-12.4a1.54,1.54,0,1,0,1.54,1.54h0a1.55,1.55,0,0,0-1.54-1.54"/></g></g></svg>