<svg xmlns="http://www.w3.org/2000/svg" viewBox="0 0 108.2 106.68"><defs><style>.cls-1{fill:#fff;}</style></defs><g id="Layer_2" data-name="Layer 2"><g id="Layer_1-2" data-name="Layer 1"><path class="cls-1" d="M24.5,11.57C24.5,18,19.78,23.13,12,23.13,4.72,23.13,0,18,0,11.57,0,5,4.87,0,12.33,0S24.35,5,24.5,11.57ZM.61,106.68V32.26H23.74v74.42Z"/><path class="cls-1" d="M37.58,56c0-9.28-.3-17-.6-23.74H57.06l1.07,10.35h.46c3-4.87,10.5-12,23-12,15.22,0,26.63,10.2,26.63,32.11v44H85.07V65.44c0-9.59-3.35-16.13-11.72-16.13-6.39,0-10.2,4.41-11.87,8.67a16.62,16.62,0,0,0-.77,5.79v42.91H37.58Z"/></g></g></svg>