<?xml version="1.0" encoding="utf-8"?>
<!-- Generator: Adobe Illustrator 22.1.0, SVG Export Plug-In . SVG Version: 6.00 Build 0)  -->
<svg version="1.1" id="Layer_1" xmlns="http://www.w3.org/2000/svg" xmlns:xlink="http://www.w3.org/1999/xlink" x="0px" y="0px"
	 viewBox="0 0 100 100" style="enable-background:new 0 0 100 100;" xml:space="preserve">
<style type="text/css">
	.st0{fill:#999999;}
	.st1{fill:#FFFFFF;}
</style>
<title>logout-icon</title>
<g id="Layer_2_1_">
	<g id="Layer_1-2">
		<circle class="st0" cx="50" cy="50" r="50"/>
		<g id="GOLhDh.tif">
			<path class="st1" d="M22.7,49.2c0.1-1,0.2-1.9,0.3-2.8c1.2-8.4,6.2-15.8,13.6-20c1.1-0.6,2-0.1,2,1.1c0,2.5,0,4.9,0,7.4
				c0,0.6-0.3,1.1-0.7,1.5c-2.8,2.5-4.7,5.8-5.6,9.4C30,55.6,36,65.4,45.8,67.7c9.3,2.2,18.8-3.2,21.6-12.4c2.2-7.4,0.2-13.8-5.5-19
				c-0.3-0.3-0.5-0.7-0.5-1.2c0-2.6,0-5.2,0-7.8c0-1.2,0.8-1.7,1.9-1.1C71,30.7,75.7,37.2,77,46c2.3,14.9-7.9,28.8-22.8,31.1
				c-13.3,2.1-26-5.8-30.1-18.6c-0.7-2.3-1.2-4.6-1.3-7c0-0.2-0.1-0.4-0.1-0.6L22.7,49.2z"/>
			<path class="st1" d="M45.5,36.3V24.2c0-1.2,0.3-1.5,1.5-1.5h6.3c0.9,0,1.3,0.4,1.3,1.3c0,8.2,0,16.4,0,24.6c0,1-0.4,1.3-1.4,1.3
				h-6.3c-1,0-1.4-0.4-1.4-1.4V36.3z"/>
		</g>
	</g>
</g>
</svg>
