<svg xmlns="http://www.w3.org/2000/svg" viewBox="0 0 415.8 119.01"><defs><style>.cls-1{fill:#fff;}</style></defs><g id="Layer_2" data-name="Layer 2"><g id="Layer_1-2" data-name="Layer 1"><path id="logo" class="cls-1" d="M108.71,62.46h26.11l-2.5,14.3a5.29,5.29,0,0,1-4.85,4.16H104.25a2.42,2.42,0,0,1-1.92-.78,2.63,2.63,0,0,1-.46-2.18l2-11.33a5.31,5.31,0,0,1,4.86-4.17M136.21,31H103.76l-1.24,7h33.69a2.47,2.47,0,0,1,1.93.78,2.67,2.67,0,0,1,.46,2.18l-2.55,14.56H108.71A12.4,12.4,0,0,0,97,65.42L95,76.76a9.53,9.53,0,0,0,2,7.88,9.33,9.33,0,0,0,7.28,3.28h23.22a12.42,12.42,0,0,0,11.74-10l6.27-35.84a9.47,9.47,0,0,0-2-7.89A9.32,9.32,0,0,0,136.21,31M79.29,48.4H15.51l6.21,7H78ZM83.41,31H0l6.22,7H83.41a3.63,3.63,0,0,1,2.85,1.19,3.84,3.84,0,0,1,.7,3.19l-5.78,33a6.91,6.91,0,0,1-6.51,5.58H49.49a12,12,0,0,0-11.35,9.61L33.05,119h7.1L45,91.77a4.87,4.87,0,0,1,4.46-3.83H74.67a14.18,14.18,0,0,0,13.4-11.38l5.78-33a10.69,10.69,0,0,0-2.24-8.89A10.47,10.47,0,0,0,83.41,31M75.08,71.53l.78-4.3,0-2.69H29.85l6.22,7Zm217.85-62-2.25,12.84h7.1L300,9.49ZM279.29,87.92h7.09l9.95-57h-7.1ZM313.3,0,298,87.92h7.1L320.4,0ZM265.94,62.46l-2.5,14.3a5.3,5.3,0,0,1-4.85,4.16H235.37a2.44,2.44,0,0,1-1.93-.78A2.63,2.63,0,0,1,233,78l2-11.33a5.3,5.3,0,0,1,4.85-4.17ZM267.33,31H244.88l-1.23,7h23.68a2.44,2.44,0,0,1,1.92.78,2.63,2.63,0,0,1,.46,2.18l-2.55,14.56H239.82a12.41,12.41,0,0,0-11.74,10l-2,11.34a9.46,9.46,0,0,0,2,7.88,9.33,9.33,0,0,0,7.28,3.28h23.22a12.42,12.42,0,0,0,11.74-10l6.27-35.84a9.51,9.51,0,0,0-2-7.89A9.33,9.33,0,0,0,267.33,31m-27.22,0H216a12.42,12.42,0,0,0-11.74,10l-8.15,47h7.1l7.94-45.8A5.31,5.31,0,0,1,216,38h22.91Zm-49.93,0-8.77,50H156.75a2.44,2.44,0,0,1-1.93-.78,2.65,2.65,0,0,1-.46-2.17l8.28-47h-7.1l-8.06,45.81a9.46,9.46,0,0,0,2,7.88,9.32,9.32,0,0,0,7.28,3.28h23.43L174.77,119h7.09L197.28,31ZM384,57.5c-2.42-2.31-5.79-5.54-7.34-7h-11.6l-9,7ZM336.46,72.79h63.45l-7.27-7H345.43Zm72.08,8.3H325.27a3,3,0,0,1-2.94-3.47,2.92,2.92,0,0,1,1.11-1.87L357.1,49.5a10,10,0,0,0,3.69-6.07l.1-.55a10,10,0,0,0-9.82-11.79H323.75l-1.22,7h28.54A3,3,0,0,1,354,41.62l-.1.55a3,3,0,0,1-1.1,1.82L319.14,70.23a10,10,0,0,0,6.13,17.86H415.8Z"/></g></g></svg>