<?xml version="1.0" encoding="utf-8"?>
<!-- Generator: Adobe Illustrator 26.0.1, SVG Export Plug-In . SVG Version: 6.00 Build 0)  -->
<svg version="1.1" xmlns="http://www.w3.org/2000/svg" xmlns:xlink="http://www.w3.org/1999/xlink" x="0px" y="0px"
	 viewBox="0 0 436.4 119" style="enable-background:new 0 0 436.4 119;" xml:space="preserve">
<style type="text/css">
	.st0{display:none;}
	.st1{display:inline;fill:#333333;}
	.st2{fill:#FFFFFF;}
</style>
<g id="Layer_3" class="st0">
	<rect x="-2.5" y="-2.6" class="st1" width="440.9" height="123.9"/>
</g>
<g id="Layer_1">
	<g id="Layer_2_00000101062696590328775120000009713946535972711869_">
		<g id="Layer_1-2">
			<path id="logo" class="st2" d="M108.7,62.5h26.1l-2.5,14.3c-0.5,2.3-2.5,4-4.8,4.2h-23.2c-0.7,0-1.4-0.2-1.9-0.8
				c-0.5-0.6-0.6-1.4-0.5-2.2l2-11.3C104.4,64.3,106.4,62.6,108.7,62.5 M136.2,31h-32.5l-1.2,7h33.7c0.7,0,1.4,0.2,1.9,0.8
				s0.6,1.4,0.5,2.2L136,55.6h-27.3c-5.7,0.2-10.6,4.3-11.7,9.9l-2,11.3c-0.5,2.8,0.2,5.7,2,7.9c1.8,2.1,4.5,3.3,7.3,3.3h23.2
				c5.8-0.2,10.6-4.3,11.7-10l6.3-35.8c0.6-2.8-0.2-5.7-2-7.9C141.7,32.1,139,30.9,136.2,31 M79.3,48.4H15.5l6.2,7H78L79.3,48.4z
				 M83.4,31H0l6.2,7h77.2c1.1,0,2.1,0.4,2.8,1.2c0.7,0.9,1,2.1,0.7,3.2l-5.8,33c-0.6,3.1-3.3,5.5-6.5,5.6H49.5
				c-5.6,0.2-10.2,4.2-11.4,9.6L33,119h7.1L45,91.8c0.5-2.1,2.3-3.7,4.5-3.8h25.2c6.6-0.2,12.1-4.9,13.4-11.4l5.8-33
				c0.6-3.1-0.2-6.4-2.2-8.9C89.6,32.3,86.6,30.9,83.4,31 M75.1,71.5l0.8-4.3v-2.7h-46l6.2,7H75.1z M292.9,9.5l-2.2,12.8h7.1
				L300,9.5H292.9z M279.3,87.9h7.1l10-57h-7.1L279.3,87.9z M313.3,0L298,87.9h7.1L320.4,0H313.3z M265.9,62.5l-2.5,14.3
				c-0.5,2.3-2.5,4-4.9,4.2h-23.2c-0.7,0-1.4-0.2-1.9-0.8c-0.5-0.6-0.6-1.4-0.4-2.1l2-11.3c0.5-2.3,2.5-4,4.9-4.2L265.9,62.5z
				 M267.3,31h-22.4l-1.2,7h23.7c0.7,0,1.4,0.2,1.9,0.8s0.6,1.4,0.5,2.2l-2.5,14.6H240c-5.8,0.2-10.6,4.3-11.7,10l-2,11.3
				c-0.6,2.8,0.2,5.7,2,7.9c1.8,2.1,4.5,3.3,7.3,3.3h23.2c5.8-0.2,10.6-4.3,11.7-10l6.3-35.8c0.5-2.8-0.2-5.7-2-7.9
				C272.8,32.2,270.1,31,267.3,31 M240.1,31H216c-5.8,0.2-10.6,4.3-11.7,10l-8.1,47h7.1l7.9-45.8c0.5-2.3,2.5-4,4.8-4.2h22.9
				L240.1,31z M190.2,31l-8.8,50h-24.7c-0.7,0-1.4-0.2-1.9-0.8c-0.5-0.6-0.6-1.4-0.5-2.2l8.3-47h-7.1l-8.1,45.8
				c-0.6,2.8,0.2,5.7,2,7.9c1.8,2.1,4.5,3.3,7.3,3.3h23.4l-5.4,31h7.1l15.4-88C197.2,31,190.2,31,190.2,31z M384,57.5
				c-2.4-2.3-5.8-5.5-7.3-7h-11.6l-9,7H384z M336.5,72.8H400l-7.3-7h-47.2L336.5,72.8z M408.5,81.1h-83.3c-1.7,0-3-1.4-3-3
				c0-0.1,0-0.3,0-0.4c0.1-0.7,0.5-1.4,1.1-1.9L357,49.6c1.9-1.5,3.2-3.7,3.7-6.1l0.1-0.5c1-5.4-2.6-10.6-8-11.6
				c-0.6-0.1-1.2-0.2-1.8-0.2h-27.3l-1.2,7H351c1.7,0,3,1.4,3,3c0,0.2,0,0.3,0,0.5l-0.1,0.5c-0.1,0.7-0.5,1.4-1.1,1.8l-33.7,26.2
				c-4.3,3.4-5.1,9.7-1.7,14c1.9,2.4,4.8,3.8,7.8,3.8h90.5L408.5,81.1z"/>
		</g>
	</g>
	<g id="Layer_2">
	</g>
	<g>
		<path class="st2" d="M425.5,73.4c4.2,0,7.5,3.3,7.5,7.4c0,4.2-3.3,7.5-7.6,7.5c-4.3,0-7.7-3.3-7.7-7.5
			C417.8,76.7,421.2,73.4,425.5,73.4L425.5,73.4z M425.4,75.2c-3.1,0-5.5,2.5-5.5,5.7c0,3.2,2.4,5.7,5.5,5.7c3.2,0,5.5-2.6,5.5-5.7
			C430.9,77.7,428.6,75.2,425.4,75.2L425.4,75.2z M424.4,84.5h-2v-7.1c0.6-0.1,1.6-0.3,2.9-0.3c1.5,0,2.2,0.2,2.6,0.6
			c0.4,0.3,0.7,0.8,0.7,1.5c0,0.8-0.7,1.4-1.5,1.7V81c0.7,0.3,1.1,0.8,1.4,1.8c0.2,1,0.4,1.5,0.5,1.7H427c-0.2-0.3-0.4-0.9-0.5-1.6
			c-0.1-0.7-0.5-1.1-1.3-1.1h-0.7V84.5z M424.5,80.5h0.7c0.8,0,1.5-0.3,1.5-1c0-0.6-0.4-1-1.4-1c-0.4,0-0.6,0-0.8,0V80.5z"/>
	</g>
</g>
</svg>
