<svg xmlns="http://www.w3.org/2000/svg" viewBox="0 0 42.94 42.9"><defs><style>.cls-1{fill:#742a83;}</style></defs><g id="Layer_2" data-name="Layer 2"><g id="Layer_1-2" data-name="Layer 1"><g id="Merchant_Funds" data-name="Merchant Funds"><path class="cls-1" d="M41.5,41.4H1.5V39.7h40ZM3.6,34.2H7.9v4.2H3.6ZM5.1,22.6H6.3V32.8H5.1ZM3.6,19.5H39.3v1.7H3.6Zm9.5-7.4a9,9,0,0,0,16.8,0L39.7,18H3.3ZM21.5,1.4A7.6,7.6,0,1,1,13.9,9a7.6,7.6,0,0,1,7.6-7.6M37.8,32.7H36.6V22.6h1.2ZM28.3,22.6h1.2V38.4H28.3Zm-14.9,0h1.2V38.4H13.4ZM9.3,38.3V33.4a.68.68,0,0,0-.7-.7H7.8V22.6H12V38.4l-2.7-.1ZM16,22.6H26.8V38.4H16ZM30.9,38.3V22.6h4.2V32.8h-.8a.68.68,0,0,0-.7.7v4.9l-2.7-.1Zm8.4,0H35V34.1h4.3Zm2.9,0H40.8V33.4a.68.68,0,0,0-.7-.7h-.8V22.6h.8a.68.68,0,0,0,.7-.7V19.5h1.4a.75.75,0,0,0,.7-.5.67.67,0,0,0-.3-.8L30.3,10.8A11,11,0,0,0,30.5,9a9,9,0,0,0-18,0,11,11,0,0,0,.2,1.8L.4,18.2a.67.67,0,0,0-.3.8.75.75,0,0,0,.7.5H2.2v2.4a.68.68,0,0,0,.7.7h.8V32.8H2.9a.68.68,0,0,0-.7.7v4.9H.7a.68.68,0,0,0-.7.7v3.1a.68.68,0,0,0,.7.7H42.1a.68.68,0,0,0,.7-.7V39.1a.64.64,0,0,0-.6-.8"/><path class="cls-1" d="M20,6.7a1.34,1.34,0,0,1,.8-1.3V8.1A1.6,1.6,0,0,1,20,6.7m3,4.4a1.34,1.34,0,0,1-.8,1.3V9.7a2.25,2.25,0,0,1,.8,1.4m-3.1,0a.7.7,0,1,0-1.4,0,2.91,2.91,0,0,0,2.2,2.8v1a.7.7,0,0,0,1.4,0v-1a2.88,2.88,0,0,0,0-5.6V5.4a1.56,1.56,0,0,1,.8,1.3.7.7,0,0,0,1.4,0,2.91,2.91,0,0,0-2.2-2.8v-1a.7.7,0,0,0-1.4,0v1a2.88,2.88,0,0,0-2.2,2.8,2.8,2.8,0,0,0,2.2,2.8v2.9a1.51,1.51,0,0,1-.8-1.3"/></g></g></g></svg>