<svg xmlns="http://www.w3.org/2000/svg" viewBox="0 0 37 37"><defs><style>.cls-1{fill:#b9d532;}</style></defs><g id="Layer_2" data-name="Layer 2"><g id="Layer_1-2" data-name="Layer 1"><path class="cls-1" d="M18.5,0A18.5,18.5,0,1,0,37,18.5,18.5,18.5,0,0,0,18.5,0Zm8,25.7a.94.94,0,0,1-.94.94,16,16,0,0,1-16-16h0a1,1,0,0,1,.94-.94h3.29a.94.94,0,0,1,.94.94A10.87,10.87,0,0,0,15.32,14a.94.94,0,0,1-.23,1L13,17.05a14.24,14.24,0,0,0,6.19,6.19l2.06-2.06a.94.94,0,0,1,1-.23,10.58,10.58,0,0,0,3.35.54.94.94,0,0,1,.94.93Z"/></g></g></svg>