<?xml version="1.0" encoding="utf-8"?>
<!-- Generator: Adobe Illustrator 26.0.3, SVG Export Plug-In . SVG Version: 6.00 Build 0)  -->
<svg version="1.1" id="Layer_1" xmlns="http://www.w3.org/2000/svg" xmlns:xlink="http://www.w3.org/1999/xlink" x="0px" y="0px"
	 viewBox="0 0 38 35.2" style="enable-background:new 0 0 38 35.2;" xml:space="preserve">
<style type="text/css">
	.st0{opacity:0.32;fill:#FFFFFF;enable-background:new    ;}
</style>
<g id="Layer_2_00000179640679539432944170000003454948485235866772_">
	<g id="Layer_1-2">
		<path id="Path_501" class="st0" d="M14.1,19.9v15.3H0V23.1c0-6.5,0.8-11.3,2.3-14.2c2.1-4,5.6-7.1,9.8-8.9l3.2,5.1
			c-2.5,0.9-4.6,2.7-5.9,5c-1.3,2.2-2,5.5-2.1,9.7L14.1,19.9z M36.8,19.9v15.3H22.7V23.1c0-6.5,0.8-11.3,2.3-14.2
			c2.1-4,5.6-7.1,9.7-8.9L38,5.1c-2.5,0.9-4.6,2.7-5.9,5c-1.3,2.2-2,5.5-2.1,9.7L36.8,19.9z"/>
	</g>
</g>
</svg>
