<svg xmlns="http://www.w3.org/2000/svg" viewBox="0 0 29.94 24.29"><defs><style>.cls-1{fill:#fffeff;fill-rule:evenodd;}</style></defs><g id="Layer_2" data-name="Layer 2"><g id="Layer_1-2" data-name="Layer 1"><path id="Path_39" data-name="Path 39" class="cls-1" d="M9.48,24.28C20.79,24.28,27,15,27,6.82V6a13.6,13.6,0,0,0,3-3.16,14.21,14.21,0,0,1-3.49,1A6.47,6.47,0,0,0,29.1.5,15.34,15.34,0,0,1,25.28,2a6,6,0,0,0-4.49-2,6.25,6.25,0,0,0-6.15,6.15,3.15,3.15,0,0,0,.17,1.33A17.18,17.18,0,0,1,2.17,1a6.36,6.36,0,0,0-.84,3.16A6.64,6.64,0,0,0,4,9.32a5.53,5.53,0,0,1-2.82-.84h0a6.07,6.07,0,0,0,5,6,5.25,5.25,0,0,1-1.67.17,2.87,2.87,0,0,1-1.16-.17A6.3,6.3,0,0,0,9.15,18.8,12.64,12.64,0,0,1,1.5,21.46,4.74,4.74,0,0,1,0,21.29a15.65,15.65,0,0,0,9.48,3"/></g></g></svg>