<svg xmlns="http://www.w3.org/2000/svg" viewBox="0 0 30.4 25.06"><defs><style>.cls-1{fill:#fffeff;}</style></defs><g id="Layer_2" data-name="Layer 2"><g id="Layer_1-2" data-name="Layer 1"><g id="Layer_1-3" data-name="Layer 1"><g id="Lozenge"><path id="Path_200" data-name="Path 200" class="cls-1" d="M30.11,5.41A8.53,8.53,0,0,0,28.9,1.87a4,4,0,0,0-3-1.51C21.6,0,15.21,0,15.21,0h0S8.82,0,4.56.36a4,4,0,0,0-3,1.51A8.53,8.53,0,0,0,.3,5.41Q0,8.28,0,11.17v2.7q0,2.9.3,5.77a8.58,8.58,0,0,0,1.21,3.54A4.69,4.69,0,0,0,4.86,24.7c2.43.27,10.34.36,10.34.36s6.39,0,10.65-.37a4,4,0,0,0,3-1.51,8.57,8.57,0,0,0,1.2-3.54q.28-2.87.3-5.76V11.17q0-2.89-.3-5.77Zm-18,11.74v-10l8.22,5Z"/></g></g></g></g></svg>